<svg width="19" height="19" viewBox="0 0 19 19" fill="none" xmlns="http://www.w3.org/2000/svg">
<path d="M0.462135 8.88366C0.430848 8.97556 0.414715 9.0826 0.413733 9.2048C0.412752 9.327 0.427169 9.4338 0.456982 9.52521C0.456491 9.58631 0.481459 9.6472 0.531885 9.7079C0.582311 9.76859 0.622676 9.81408 0.652981 9.84439L6.47146 15.6629C6.66339 15.8548 6.87898 15.9523 7.11825 15.9555C7.35752 15.9587 7.57467 15.8628 7.76971 15.6677C7.97501 15.4624 8.07608 15.2401 8.07291 15.0009C8.06974 14.7616 7.97219 14.546 7.78026 14.3541L3.50731 10.0811L16.9339 9.98857C17.1986 9.98644 17.4183 9.89812 17.5928 9.72362C17.7673 9.54911 17.8556 9.32947 17.8577 9.06471C17.8589 8.92214 17.842 8.80263 17.8072 8.70617C17.7723 8.60972 17.7044 8.51098 17.6033 8.40997C17.5023 8.30895 17.4036 8.24101 17.3071 8.20615C17.2107 8.17128 17.0912 8.15442 16.9486 8.15557L3.53719 8.26328L7.86392 3.93654C8.06922 3.73124 8.17029 3.50896 8.16712 3.26969C8.16395 3.03042 8.0664 2.81483 7.87447 2.6229C7.68254 2.43097 7.46695 2.33342 7.22768 2.33025C6.98841 2.32708 6.76613 2.42814 6.56082 2.63345L0.648133 8.54614C0.617338 8.57694 0.576237 8.62309 0.524829 8.6846C0.473422 8.7461 0.452524 8.81246 0.462135 8.88366Z" fill="#383838" fill-opacity="0.94"/>
</svg>
