<svg width="64" height="64" viewBox="0 0 64 64" fill="none" xmlns="http://www.w3.org/2000/svg">
<path d="M61.2195 2.14673C54.3263 3.33867 47.5319 5.04418 40.8931 7.249C30.5198 10.6639 16.0906 16.8066 6.20422 26.6776C1.92814 30.9595 0.867461 37.349 3.23565 45.2325C4.31551 48.7762 5.83022 52.1724 7.7452 55.3437L2.18164 60.9062L3.02885 61.7599L8.57907 56.2108C11.7758 58.1517 15.2022 59.6864 18.7789 60.7795C21.2688 61.5525 23.857 61.9635 26.4639 62C30.8667 62 34.5557 60.5927 37.3442 57.8115C47.2172 47.9538 53.3545 33.5273 56.7767 23.1294C58.9832 16.49 60.6891 9.69462 61.8799 2.80036L62 2L61.2195 2.14673ZM55.6626 22.7826C52.2871 33.0338 46.2232 47.2735 36.5237 56.9578C27.8981 65.5683 12.6484 57.2245 9.47965 55.337L47.8776 16.94L47.0304 16.0929L40.5462 22.5758L39.2121 18.414L38.0647 18.7741L39.5589 23.5362L28.6586 34.4611L25.3231 23.9431L24.1824 24.3032L27.678 35.4148L16.5842 46.5331L12.3348 33.0338L11.1941 33.394L15.6236 47.5002L8.64578 54.47C6.86302 51.4554 5.44335 48.2406 4.4164 44.8924C2.18164 37.3757 3.08222 31.5531 7.08478 27.5514C24.0623 10.5505 55.1156 4.45442 60.5791 3.50067C59.3881 10.0339 57.7453 16.4766 55.6626 22.7826Z" fill="#7749F8"/>
<path fill-rule="evenodd" clip-rule="evenodd" d="M61.8799 2.80035C61.8656 2.88297 61.8513 2.96558 61.8369 3.04818C60.6481 9.85747 58.9567 16.5696 56.7766 23.1294C53.3544 33.5273 47.2172 47.9538 37.3442 57.8115C34.5557 60.5927 30.8667 62 26.4638 62C23.8569 61.9635 21.2688 61.5525 18.7789 60.7794C15.2022 59.6864 11.7758 58.1517 8.57904 56.2108L3.02882 61.7599L2.18161 60.9062L7.74517 55.3437C5.83019 52.1724 4.31547 48.7762 3.23562 45.2325C0.86743 37.349 1.92811 30.9595 6.20419 26.6776C16.0905 16.8066 30.5198 10.6638 40.8931 7.24899C47.4486 5.07184 54.1558 3.38155 60.96 2.19185C61.0465 2.17673 61.133 2.16169 61.2195 2.14673L62 1.99999L61.8799 2.80035ZM61.0419 1.1626L63.1976 0.757324L62.8672 2.95966L62.8653 2.97056C61.666 9.91384 59.948 16.7575 57.7258 23.4441C54.2899 33.883 48.0932 48.4921 38.0507 58.5191C35.0497 61.5124 31.0938 63 26.4638 63H26.4499C23.7479 62.9622 21.0653 62.5362 18.4846 61.7351C15.0799 60.6945 11.8086 59.2624 8.7359 57.468L3.02604 63.1767L0.77002 60.9034L6.48922 55.1853C4.7196 52.1381 3.3067 48.8964 2.27904 45.524L2.27789 45.5202C-0.154803 37.422 0.872903 30.601 5.4966 25.971L5.49763 25.97C15.5529 15.9303 30.1642 9.72822 40.5792 6.29955C47.2626 4.07999 54.1025 2.36289 61.0419 1.1626ZM55.6626 22.7826C57.6336 16.8148 59.2106 10.7245 60.3836 4.55088C60.45 4.20107 60.5152 3.851 60.5791 3.50066C60.2955 3.55016 59.9431 3.6135 59.5273 3.6915C51.9305 5.11649 23.1813 11.4327 7.08475 27.5513C3.08218 31.5531 2.18161 37.3757 4.41637 44.8924C5.34208 47.9105 6.58689 50.8203 8.1291 53.5726C8.29777 53.8737 8.47 54.1728 8.64575 54.47L15.6236 47.5002L11.1941 33.3939L12.3348 33.0338L16.5842 46.5331L27.678 35.4148L24.1824 24.3032L25.3231 23.9431L28.6586 34.4611L39.5589 23.5362L38.0646 18.7741L39.212 18.414L40.5462 22.5758L47.0304 16.0929L47.8776 16.94L9.47962 55.337C9.7147 55.4771 10.0163 55.6526 10.3767 55.8542C14.8746 58.3692 28.538 64.9295 36.5236 56.9578C46.2232 47.2735 52.2871 33.0338 55.6626 22.7826ZM35.8171 56.2501C45.3464 46.7358 51.3507 32.6803 54.7127 22.4698C56.6293 16.667 58.171 10.7466 59.3279 4.74712C55.5857 5.46402 47.5701 7.21099 38.4855 10.4502C27.9708 14.1994 16.1266 19.9123 7.79234 28.258C4.14616 31.9034 3.19959 37.2875 5.3737 44.6033C6.25088 47.4622 7.42098 50.2216 8.86472 52.8379L14.4878 47.2213L9.94087 32.741L12.9881 31.7788L17.0423 44.6582L26.5423 35.1372L22.9287 23.6504L25.9744 22.6888L29.114 32.5889L38.4236 23.2583L36.8111 18.1195L39.8609 17.1622L40.9982 20.7099L47.0304 14.6788L49.2919 16.9399L11.1123 55.1186C13.1963 56.2655 16.9766 58.1194 21.1846 59.1108C26.3484 60.3274 31.8724 60.1878 35.8171 56.2501Z" fill="#555555"/>
</svg>
