<svg width="50" height="70" viewBox="0 0 50 70" fill="none" xmlns="http://www.w3.org/2000/svg">
  <path d="M7.34375 7.1875C12.2396 2.39581 18.125 0 25 0s12.7604 2.39581 17.6562 7.1875C47.5521 11.9792 50 17.7604 50 24.5312c0 5.4167-2.0833 11.9271-6.25 19.5313-4.1667 7.6042-8.3333 13.8541-12.5 18.75L25 70c-.7292-.7292-1.6406-1.7448-2.7344-3.0469-1.0937-1.3021-3.0729-3.8281-5.9375-7.5781S10.9375 51.9792 8.75 48.4375c-2.18751-3.5417-4.1927-7.5521-6.01562-12.0313C.91145 31.9271 0 27.9688 0 24.5312c0-6.7708 2.44789-12.552 7.34375-17.3437zM18.5938 30.7812c1.7708 1.6667 3.9062 2.5 6.4062 2.5s4.6094-.8593 6.3281-2.5781c1.7188-1.7187 2.5781-3.776 2.5781-6.1719 0-2.3958-.8593-4.4531-2.5781-6.1718C29.6094 16.6406 27.5 15.7812 25 15.7812s-4.6094.8594-6.3281 2.5782c-1.7188 1.7187-2.5781 3.776-2.5781 6.1718 0 2.3959.8333 4.4792 2.5 6.25z" fill="grey"/>
</svg>
