<svg width="19" height="19" viewBox="0 0 19 19" fill="none" xmlns="http://www.w3.org/2000/svg">
<path d="M17.7957 9.37025C17.827 9.27835 17.8431 9.1713 17.8441 9.0491C17.8451 8.9269 17.8306 8.8201 17.8008 8.7287C17.8013 8.6676 17.7764 8.6067 17.7259 8.54601C17.6755 8.48532 17.6351 8.43982 17.6048 8.40952L11.7864 2.59104C11.5944 2.39911 11.3788 2.30156 11.1396 2.29839C10.9003 2.29522 10.6831 2.39116 10.4881 2.58619C10.2828 2.7915 10.1817 3.01378 10.1849 3.25305C10.1881 3.49231 10.2856 3.70791 10.4776 3.89984L14.7505 8.17278L1.32393 8.26534C1.05916 8.26747 0.83953 8.35578 0.665023 8.53029C0.490516 8.7048 0.4022 8.92443 0.400073 9.1892C0.398928 9.33177 0.415788 9.45127 0.450653 9.54773C0.485518 9.64419 0.553457 9.74292 0.654473 9.84394C0.755489 9.94495 0.854223 10.0129 0.950679 10.0478C1.04713 10.0826 1.16664 10.0995 1.30921 10.0983L14.7206 9.99063L10.3939 14.3174C10.1886 14.5227 10.0875 14.7449 10.0907 14.9842C10.0939 15.2235 10.1914 15.4391 10.3833 15.631C10.5753 15.8229 10.7909 15.9205 11.0301 15.9237C11.2694 15.9268 11.4917 15.8258 11.697 15.6205L17.6097 9.70777C17.6405 9.67697 17.6816 9.63082 17.733 9.56931C17.7844 9.5078 17.8053 9.44145 17.7957 9.37025Z" fill="#383838" fill-opacity="0.94"/>
</svg>
