<svg width="400" height="200" viewBox="0 0 400 200" fill="none" xmlns="http://www.w3.org/2000/svg">
<path d="M55.2583 91.0384C55.6419 90.2842 56.2226 89.6387 56.9433 89.1652C57.6641 88.6917 58.5003 88.4064 59.3701 88.3372C61.5621 87.6836 63.8929 87.5883 66.1346 88.0607C67.7734 88.465 69.4918 88.465 71.1306 88.0607C76.0079 87.276 80.9579 86.9908 85.8976 87.21C87.5556 87.21 89.2136 86.8909 90.8716 86.7633C91.4684 86.7633 92.0874 86.8697 92.6843 86.8697C93.8338 86.8697 95.0054 86.8697 95.5139 85.551C95.6022 85.3059 95.7637 85.0914 95.9781 84.9342C98.8077 83.2752 99.692 80.3188 101.217 77.7665C103.141 74.5336 105.042 71.2794 107.075 68.1103C109.109 64.9412 111.74 61.3255 113.951 57.8799C115.432 55.5616 116.714 53.1369 118.107 50.776C119.234 48.8831 121.224 48.798 122.108 50.776C124.197 54.6941 125.779 58.8443 126.816 63.1334C127.236 65.4517 128.032 67.7062 128.673 69.982C129.491 72.9171 130.42 75.831 131.149 78.8087C131.684 81.369 132.671 83.8221 134.067 86.0614C135.991 85.6999 135.88 85.7849 137.03 87.3801C137.617 88.2093 138.471 88.8296 139.461 89.1455C142.578 89.9962 145.762 90.6556 148.923 91.2724C151.709 91.6074 154.455 92.1985 157.124 93.0377C158.881 93.5852 160.676 94.0117 162.496 94.3138C164.707 94.8668 166.917 95.3986 169.128 96.1005C171.339 96.8023 172.046 98.5039 170.454 100.461C167.341 104.763 163.991 108.903 160.418 112.861C158.473 114.796 156.992 117.114 154.891 118.943C152.791 120.773 151.553 122.389 149.807 124.048C148.061 125.707 146.823 127.175 145.386 128.77C144.99 129.174 144.687 129.653 144.497 130.177C144.306 130.701 144.233 131.258 144.28 131.811C144.457 133.577 144.59 135.342 144.833 137.086C145.496 141.616 146.226 146.104 146.845 150.634C147.176 152.974 147.243 155.356 147.508 157.717C147.773 160.078 147.972 162.588 148.392 165.012C148.527 165.73 148.467 166.469 148.219 167.158C147.972 167.847 147.544 168.463 146.977 168.947C145.597 169.976 144.052 170.781 142.401 171.329C142.003 171.499 141.274 171.074 140.766 170.798C139.16 169.772 137.79 168.44 136.742 166.884C135.814 165.65 135.084 164.268 134.134 163.056C133.109 161.764 132.002 160.535 130.818 159.376C129.712 158.27 128.607 157.249 127.347 156.249C126.087 155.25 124.429 153.57 122.926 152.208C119.499 148.912 116.006 145.572 112.425 142.361C111.763 141.784 110.924 141.431 110.034 141.354C109.145 141.278 108.254 141.482 107.496 141.935C104.047 144.062 100.576 145.976 97.2824 148.188C93.9886 150.4 90.8495 152.995 87.4672 155.292C83.9682 157.851 80.1604 159.994 76.1267 161.673C75.3366 162.038 74.4812 162.255 73.6065 162.311C72.3918 162.477 71.1537 162.268 70.0695 161.716C69.2105 160.684 68.6534 159.45 68.4558 158.142C68.4123 157.817 68.4475 157.487 68.5587 157.177C68.6699 156.867 68.8541 156.586 69.0968 156.356C69.9196 155.592 70.4626 154.592 70.6443 153.506C70.9555 152.589 71.3629 151.706 71.8601 150.868C74.8666 144.658 77.8952 138.447 80.7027 132.173C81.1884 130.914 81.5366 129.609 81.7417 128.281C82.2722 125.877 82.648 123.431 83.3775 121.092C83.7598 119.736 83.7091 118.301 83.2321 116.973C82.755 115.645 81.8736 114.487 80.7027 113.647C77.4972 110.755 74.0708 108.011 70.7106 105.374C68.5 103.736 66.1567 102.502 64.0787 100.929C62.0007 99.3546 59.3701 97.3553 57.1594 95.5687C56.7136 95.0533 56.3893 94.451 56.2089 93.8034C55.8994 92.9314 55.6562 92.1444 55.2583 91.0384Z" fill="#94F7F5"/>
<path d="M55.2583 91.0384C55.6419 90.2842 56.2226 89.6387 56.9433 89.1652C57.6641 88.6917 58.5003 88.4064 59.3701 88.3372C61.5621 87.6836 63.8929 87.5883 66.1346 88.0607C67.7734 88.465 69.4918 88.465 71.1306 88.0607C76.0079 87.276 80.9579 86.9908 85.8976 87.21C87.5556 87.21 89.2136 86.8909 90.8716 86.7633C91.4684 86.7633 92.0874 86.8697 92.6843 86.8697C93.8338 86.8697 95.0054 86.8697 95.5139 85.551C95.6022 85.3059 95.7637 85.0914 95.9781 84.9342C98.8077 83.2752 99.692 80.3188 101.217 77.7665C103.141 74.5336 105.042 71.2794 107.075 68.1103C109.109 64.9412 111.74 61.3255 113.951 57.8799C115.432 55.5616 116.714 53.1369 118.107 50.776C119.234 48.8831 121.224 48.798 122.108 50.776C124.197 54.6941 125.779 58.8443 126.816 63.1334C127.236 65.4517 128.032 67.7062 128.673 69.982C129.491 72.9171 130.42 75.831 131.149 78.8087C131.684 81.369 132.671 83.8221 134.067 86.0614C135.991 85.6999 135.88 85.7849 137.03 87.3801C137.617 88.2093 138.471 88.8296 139.461 89.1455C142.578 89.9962 145.762 90.6556 148.923 91.2724C151.709 91.6074 154.455 92.1985 157.124 93.0377C158.881 93.5852 160.676 94.0117 162.496 94.3138C164.707 94.8668 166.917 95.3986 169.128 96.1005C171.339 96.8023 172.046 98.5039 170.454 100.461C167.341 104.763 163.991 108.903 160.418 112.861C158.473 114.796 156.992 117.114 154.891 118.943C152.791 120.773 151.553 122.389 149.807 124.048C148.061 125.707 146.823 127.175 145.386 128.77C144.99 129.174 144.687 129.653 144.497 130.177C144.306 130.701 144.233 131.258 144.28 131.811C144.457 133.577 144.59 135.342 144.833 137.086C145.496 141.616 146.226 146.104 146.845 150.634C147.176 152.974 147.243 155.356 147.508 157.717C147.773 160.078 147.972 162.588 148.392 165.012C148.527 165.73 148.467 166.469 148.219 167.158C147.972 167.847 147.544 168.463 146.977 168.947C145.597 169.976 144.052 170.781 142.401 171.329C142.003 171.499 141.274 171.074 140.766 170.798C139.16 169.772 137.79 168.44 136.742 166.884C135.814 165.65 135.084 164.268 134.134 163.056C133.109 161.764 132.002 160.535 130.818 159.376C129.712 158.27 128.607 157.249 127.347 156.249C126.087 155.25 124.429 153.57 122.926 152.208C119.499 148.912 116.006 145.572 112.425 142.361C111.763 141.784 110.924 141.431 110.034 141.354C109.145 141.278 108.254 141.482 107.496 141.935C104.047 144.062 100.576 145.976 97.2824 148.188C93.9886 150.4 90.8495 152.995 87.4672 155.292C83.9682 157.851 80.1604 159.994 76.1267 161.673C75.3366 162.038 74.4812 162.255 73.6065 162.311C72.3918 162.477 71.1537 162.268 70.0695 161.716C69.2105 160.684 68.6534 159.45 68.4558 158.142C68.4123 157.817 68.4475 157.487 68.5587 157.177C68.6699 156.867 68.8541 156.586 69.0968 156.356C69.9196 155.592 70.4626 154.592 70.6443 153.506C70.9555 152.589 71.3629 151.706 71.8601 150.868C74.8666 144.658 77.8952 138.447 80.7027 132.173C81.1884 130.914 81.5366 129.609 81.7417 128.281C82.2722 125.877 82.648 123.431 83.3775 121.092C83.7598 119.736 83.7091 118.301 83.2321 116.973C82.755 115.645 81.8736 114.487 80.7027 113.647C77.4972 110.755 74.0708 108.011 70.7106 105.374C68.5 103.736 66.1567 102.502 64.0787 100.929C62.0007 99.3546 59.3701 97.3553 57.1594 95.5687C56.7136 95.0533 56.3893 94.451 56.2089 93.8034C55.8994 92.9314 55.6562 92.1444 55.2583 91.0384ZM89.0367 111.223L90.761 111.372C90.5994 111.887 90.3847 112.386 90.1199 112.861C89.722 113.413 89.2136 113.86 88.7936 114.392C88.7936 114.541 88.7936 114.839 88.7936 115.136L91.1589 115.413C90.2084 116.817 89.3683 118.071 88.5062 119.262C88.5062 119.262 88.0198 119.262 87.6661 119.262C87.3609 118.361 87.4161 117.383 87.8209 116.519C87.8209 116.37 87.3125 116.008 86.7156 115.455C86.589 116.572 86.589 117.699 86.7156 118.816C86.8424 119.307 86.8607 119.818 86.7693 120.316C86.678 120.815 86.4789 121.289 86.185 121.708C85.6937 122.493 85.2934 123.328 84.9913 124.197C84.4828 125.984 84.1291 127.813 83.7312 129.557L85.3892 130.578L84.0849 132.513L82.9796 131.833C80.3045 135.798 78.193 140.09 76.7014 144.594C75.5298 147.508 74.4908 150.464 73.4518 153.421C72.9284 154.816 72.4783 156.236 72.1033 157.674C71.7717 159.014 72.5233 159.653 73.8497 159.227C74.6218 158.98 75.3631 158.652 76.0603 158.249C78.1028 157.089 80.0403 155.765 81.8522 154.293C83.5544 152.889 85.765 152.166 87.6219 150.826C91.8221 148.018 95.8676 144.998 100.068 142.318C102.391 140.785 104.83 139.421 107.363 138.235C108.446 137.669 109.718 137.539 110.9 137.873C112.813 138.55 114.506 139.702 115.807 141.212C119.368 145.648 123.326 149.776 127.634 153.548C128.084 153.925 128.564 154.267 129.071 154.569C129.845 151.953 129.845 151.953 131.945 152.442C132.454 154.123 130.398 154.25 129.845 155.633C130.619 156.42 131.415 157.292 132.255 158.121C133.648 159.401 134.886 160.828 135.946 162.375C137.344 164.218 138.881 165.96 140.544 167.586C141.009 168.118 141.65 168.692 142.357 168.224C142.985 167.806 143.464 167.212 143.728 166.522C143.872 165.77 143.872 164.999 143.728 164.247C143.551 161.035 143.264 157.866 143.175 154.59C143.364 151.117 143.029 147.635 142.18 144.254C142.147 143.914 142.147 143.572 142.18 143.233C141.716 139.808 141.34 136.363 140.743 132.939C140.495 131.861 140.502 130.744 140.762 129.669C141.022 128.594 141.529 127.589 142.247 126.728C143.219 125.558 144.148 124.388 144.855 123.516C144.49 122.802 144.258 122.032 144.17 121.241C144.347 120.071 144.347 118.731 145.651 117.986C146.535 118.688 146.646 119.348 145.983 120.113C145.319 120.879 145.983 121.411 146.358 122.006L150.647 118.093C149.21 116.327 149.21 116.136 150.492 114.541L151.332 116.455L153.764 114.647C153.254 114.124 152.915 113.468 152.789 112.761C152.663 112.054 152.756 111.326 153.057 110.67L155.113 113.456L156.549 112.222C155.4 109.67 155.4 109.67 156.262 108.373L157.92 110.181C159.047 108.883 157.367 107.373 158.583 106.31C159.445 106.565 159.666 108.437 161.125 106.948C160.252 105.749 159.767 104.328 159.733 102.864L162.872 105.14C163.188 105.038 163.45 104.819 163.599 104.532C163.748 104.245 163.773 103.913 163.668 103.608C163.476 102.527 163.417 101.428 163.491 100.333C163.491 99.8864 164.066 99.461 164.463 98.8654L166.409 101.482C167.271 100.503 168.818 100.014 168.619 98.3337C166.349 97.4238 164.015 96.6704 161.634 96.0792C158.34 95.59 155.002 94.6967 151.863 93.9523C150.293 93.6545 148.724 93.5056 147.972 94.9732L143.551 94.1437L142.578 92.7399C140.124 91.953 138.024 91.3362 135.946 90.613C134.598 90.1238 133.493 88.869 131.812 89.7197C131.613 89.7197 131.193 89.5283 130.884 89.4007L128.541 88.3798C128.165 86.7846 128.143 86.8059 126.662 85.5722C126.243 85.1928 125.964 84.6927 125.866 84.1472C125.866 83.8069 126.419 83.4453 126.905 82.8711C127.546 84.998 129.889 85.2532 130.464 87.1249C130.853 87.1687 131.246 87.1687 131.636 87.1249C130.884 84.998 130.132 83.1901 129.558 81.2546C129.454 80.846 129.246 80.4686 128.953 80.1566C128.659 79.8447 128.29 79.608 127.878 79.468C126.861 79.0639 125.844 78.596 124.694 78.1068C126.087 76.3627 127.524 78.6598 128.85 77.6814L126.22 70.0458C125.333 70.0156 124.474 69.7463 123.739 69.2687C123.004 68.7911 122.424 68.1244 122.064 67.3446L125.512 68.323L124.495 64.3882L122.97 65.0688L121.378 61.3468L122.882 60.7299L124.274 62.3889L124.517 62.1762L123.81 60.3046C122.528 60.0919 121.312 59.8366 120.914 58.1777L122.373 57.412C121.533 56.0933 119.477 57.0079 118.77 55.2851L120.98 53.4559L120.096 52.0309C117.895 54.0362 116.318 56.5919 115.542 59.4113C115.542 59.8154 114.879 60.0919 114.525 60.4534C112.938 61.824 111.494 63.3414 110.215 64.9838C107.65 68.9186 105.44 73.066 103.008 77.0859C101.936 79.5604 100.649 81.9439 99.1614 84.211C98.9625 84.445 98.7193 84.9342 98.8298 85.1256C99.8909 86.9547 98.4982 87.3589 97.194 87.8693C96.8568 88.0398 96.5566 88.2708 96.3097 88.5499C95.4697 88.2947 94.9391 87.9544 94.4528 88.0182C92.7948 88.1671 91.181 88.635 89.5231 88.6988C85.9197 88.6988 82.3164 88.6988 78.7131 88.6988C77.2288 88.7079 75.7486 88.8503 74.2918 89.1242C70.0301 89.6482 65.7432 89.9606 61.4481 90.06C59.4585 90.2727 58.6627 91.0171 59.5911 92.6974C60.0959 93.6498 60.8241 94.4761 61.718 95.1111C62.612 95.746 63.6473 96.1721 64.7419 96.3557C65.5819 95.0795 66.3336 93.8459 67.1957 92.6974C67.6599 92.0806 68.2568 92.1869 68.6768 92.9952L66.842 97.5042L68.4116 98.3762C69.4506 96.8236 69.5169 94.8243 71.3738 93.9097C72.656 94.9945 71.617 95.7601 71.2191 96.6322C70.854 97.485 70.544 98.3587 70.2906 99.2483L81.3437 108.777C81.9406 107.756 82.4933 106.65 83.2007 105.608C83.9081 104.566 84.5713 104.523 85.6766 105.331L84.9692 106.671L82.3385 109.883L86.3619 114.817L89.1031 111.095L89.0367 111.223Z" fill="#464646"/>
<path d="M126.043 19.6172C127.656 20.6381 127.745 20.7019 127.435 21.9993C126.816 24.5091 126.087 26.9976 125.468 29.5286C125.317 30.1368 125.029 30.7056 124.624 31.1946C124.219 31.6835 123.707 32.0805 123.125 32.3574C122.984 30.8358 123.196 29.3033 123.744 27.8696C124.313 26.3274 124.742 24.7404 125.026 23.1266C125.313 22.0206 125.689 20.9359 126.043 19.6172Z" fill="#464646"/>
<path d="M160.926 49.3936C161.188 49.93 161.26 50.5339 161.132 51.1135C161.005 51.6931 160.684 52.2168 160.219 52.6052C159.246 53.6899 158.141 54.7321 157.058 55.6467C156.826 55.8956 156.528 56.0794 156.196 56.1784C155.356 56.3273 154.471 56.6463 153.786 55.8381C153.101 55.0299 153.786 54.4131 154.029 53.7112C154.183 53.4075 154.42 53.1501 154.714 52.9668C156.589 51.4855 158.683 50.2813 160.926 49.3936Z" fill="#464646"/>
<path d="M179.562 63.3672C179.827 65.4941 179.805 65.4941 178.346 66.3236C177.749 66.6426 177.219 67.068 176.622 67.4296C176.025 67.7912 175.583 68.2378 175.273 68.1315C173.77 67.5572 172.93 68.6632 171.825 69.3438C170.808 68.2803 171.361 67.387 172.002 66.6214C174.078 64.7618 176.737 63.6173 179.562 63.3672Z" fill="#464646"/>
<path d="M187.94 104.459C188.427 103.609 188.581 102.949 188.979 102.715C191.19 101.397 197.336 101.886 199.811 103.502C199.679 104.204 199.303 104.523 198.529 104.353C196.548 103.939 194.498 103.939 192.516 104.353C190.998 104.531 189.466 104.567 187.94 104.459Z" fill="#464646"/>
<path d="M143.374 30.8896C143.595 31.5277 144.015 32.102 143.882 32.4848C142.74 35.1231 141.148 37.5599 139.174 39.6951C138.975 39.9503 138.267 39.6951 137.825 39.8439C137.538 38.3551 138.422 37.5256 139.129 36.5898C139.789 35.6848 140.387 34.7399 140.92 33.761C141.407 32.581 142.265 31.577 143.374 30.8896Z" fill="#464646"/>
<path d="M181.618 87.4862C182.444 86.8108 183.341 86.2192 184.293 85.7208C185.907 85.0615 187.609 84.6574 189.245 84.0618C190.129 83.7428 190.947 83.2749 192.074 82.7432C192.074 83.3174 192.074 83.9342 191.92 84.1044C189.332 86.0968 186.309 87.5002 183.077 88.2093C182.768 88.2519 182.458 87.9328 181.618 87.4862Z" fill="#464646"/>
<path d="M124.429 200C123.211 196.844 123.211 193.372 124.429 190.216C124.871 190.769 125.424 191.152 125.468 191.577C125.578 192.759 125.578 193.947 125.468 195.129C125.349 196.385 125.164 197.634 124.915 198.872C124.81 199.269 124.646 199.648 124.429 200Z" fill="#464646"/>
<path d="M149.343 190.024C147.869 188.761 146.854 187.076 146.447 185.218C146.115 184.133 146.447 183.856 148.215 182.687C149.53 184.911 149.932 187.529 149.343 190.024Z" fill="#464646"/>
<path d="M184.647 143.68C183.288 143.781 181.923 143.57 180.666 143.063C179.409 142.557 178.296 141.769 177.418 140.766C177.321 140.592 177.271 140.399 177.271 140.202C177.271 140.005 177.321 139.812 177.418 139.638C177.568 139.499 177.75 139.395 177.95 139.336C178.15 139.277 178.361 139.264 178.567 139.298C179.062 139.432 179.512 139.689 179.872 140.043C180.942 141.368 182.395 142.36 184.05 142.893C184.16 142.914 184.293 143.233 184.647 143.68Z" fill="#464646"/>
<path d="M103.959 199.787C103.523 196.546 104.092 193.253 105.595 190.322C106.015 190.811 106.413 191.067 106.39 191.279C106.103 193.406 105.771 195.533 105.351 197.66C105.122 198.39 104.834 199.101 104.489 199.787H103.959Z" fill="#464646"/>
<path d="M167.956 158.951C168.641 158.61 169.061 158.249 169.503 158.228C169.924 158.289 170.308 158.493 170.587 158.802C170.894 159.096 171.141 159.442 171.316 159.823C172.134 161.354 172.93 162.907 173.726 164.438C173.726 164.438 173.394 164.672 173.35 164.63C172.068 163.545 170.764 162.503 169.592 161.312C168.966 160.579 168.418 159.788 167.956 158.951Z" fill="#464646"/>
<path d="M91.999 19C92.2643 20.8717 92.419 22.7434 92.8169 24.5938C93.3762 26.4314 93.6591 28.3366 93.657 30.2514C91.6453 28.5498 91.7558 26.4016 91.2916 24.5725C91.1905 22.6896 91.4298 20.8041 91.999 19V19Z" fill="#464646"/>
<path d="M34.0139 80.1271L24.6851 75.1289C28.1895 75.9026 31.577 77.1034 34.7655 78.7021L34.0139 80.1271Z" fill="#464646"/>
<path d="M190.416 126.494C187.985 125.58 185.553 124.686 183.166 123.729C182.878 123.623 182.701 123.283 182.281 122.815C182.922 122.474 183.453 121.943 183.851 122.028C184.793 122.196 185.689 122.551 186.481 123.07C187.896 124.069 189.201 125.197 190.549 126.281L190.416 126.494Z" fill="#464646"/>
<path d="M26.7192 106.799C28.4547 105.688 30.5766 105.283 32.6216 105.672C33.1964 105.672 33.7933 106.352 34.2133 106.841C34.6333 107.331 34.2133 107.565 34.2133 108.373C31.9805 106.395 29.4383 107.543 26.7192 106.799Z" fill="#464646"/>
<path d="M162.385 177.774C160.993 176.264 159.976 175.243 159.092 174.137C158.736 173.67 158.564 173.097 158.605 172.52C158.605 172.159 159.18 171.818 159.6 171.329C161.291 173.093 162.278 175.376 162.385 177.774Z" fill="#464646"/>
<path d="M87.9754 187.026C85.9638 191.046 84.4384 192.918 82.6699 193.407C83.9742 191.28 85.1237 189.153 86.3838 187.218C86.5164 186.899 87.2017 187.026 87.9754 187.026Z" fill="#464646"/>
<path d="M48.7368 47.3096C49.1126 47.4797 49.6211 47.5648 49.82 47.8413C50.9917 49.5003 52.0307 51.2018 53.1802 52.9459C53.3791 53.2436 53.1802 53.7966 53.1802 54.6899C51.1777 52.5567 49.6639 50.0422 48.7368 47.3096Z" fill="#464646"/>
<path d="M31.6045 136.32C32.5894 134.971 34.0788 134.041 35.7605 133.726C36.053 133.727 36.3423 133.784 36.6117 133.893C36.8811 134.003 37.1253 134.163 37.33 134.364C37.4329 134.535 37.487 134.729 37.487 134.927C37.487 135.125 37.4329 135.32 37.33 135.491C36.9321 135.81 36.1584 136.214 35.8047 136.044C35.3635 135.856 34.8795 135.781 34.3993 135.826C33.9192 135.871 33.4591 136.034 33.0635 136.299C32.5808 136.375 32.0893 136.382 31.6045 136.32Z" fill="#464646"/>
<path d="M61.8237 35.8877C64.0344 37.4403 64.6312 39.9926 66.0239 42.0557C66.1566 42.2684 65.825 42.7576 65.6923 43.2255C63.8734 41.0732 62.5543 38.5712 61.8237 35.8877Z" fill="#464646"/>
<path d="M68.4337 188.684C67.6379 186.558 69.539 183.452 71.617 182.304C71.7497 182.304 71.9928 182.58 71.9707 182.623C70.7991 184.665 69.6275 186.685 68.4337 188.684Z" fill="#464646"/>
<path d="M53.0036 180.135C53.5465 177.734 55.0364 175.63 57.1596 174.265C57.4249 174.754 57.7122 175.052 57.6459 175.158C56.5425 177.167 54.9017 178.855 52.8931 180.05L53.0036 180.135Z" fill="#464646"/>
<path d="M47.1673 162.332C45.0371 164.119 42.6918 165.655 40.1817 166.905C40.1817 166.586 40.0049 166.373 40.0491 166.331C41.8618 164.884 43.6745 163.459 45.5093 162.077C46.1062 161.673 46.5926 161.502 47.1673 162.332Z" fill="#464646"/>
<path d="M32.4447 91.4428C31.7594 92.4212 31.0741 92.8679 30.2341 92.7403C28.1905 92.7181 26.1932 92.1512 24.4644 91.1025L32.4447 91.4428Z" fill="#464646"/>
<path d="M31.4718 121.453C29.2612 122.304 27.4927 123.048 25.3926 121.687C26.2175 120.97 27.2775 120.554 28.3882 120.511C29.4989 120.469 30.59 120.802 31.4718 121.453Z" fill="#464646"/>
<path d="M108.932 28.5924C108.644 27.3033 108.647 25.9697 108.941 24.6818C109.234 23.3938 109.812 22.1815 110.635 21.127C110.038 23.4453 110.723 26.0188 108.932 28.5924Z" fill="#464646"/>
<path d="M78.8017 27.2734C79.8123 29.8018 80.6613 32.3873 81.344 35.0154C80.3235 34.0041 79.5624 32.7777 79.1211 31.4337C78.6798 30.0897 78.5704 28.6652 78.8017 27.2734Z" fill="#464646"/>
<path d="M41.1985 66.3663C38.9878 65.4517 38.3026 63.0909 36.5562 61.7084C38.0594 61.4106 38.6341 62.5591 39.43 63.3036C40.2258 64.048 40.9774 65.0051 41.6406 65.8771L41.1985 66.3663Z" fill="#464646"/>
<path d="M40.8007 148.742L36.3794 151.337C36.7872 150.054 37.6471 148.948 38.8111 148.21C38.9606 148.069 39.1459 147.969 39.3484 147.919C39.5509 147.869 39.7635 147.871 39.965 147.925C40.1664 147.979 40.3497 148.082 40.4963 148.226C40.643 148.369 40.7479 148.547 40.8007 148.742Z" fill="#464646"/>
<path d="M52.9594 180.092L51.8983 182.219L51.4341 181.942C51.633 181.134 51.7878 180.326 53.0036 180.241L52.9594 180.092Z" fill="#464646"/>
<path d="M24.1769 105.587L25.7685 106.204L25.5695 106.693L24 106.076L24.1769 105.587Z" fill="#464646"/>
<path d="M202 103.247C201.672 103.485 201.324 103.699 200.961 103.885C200.961 103.885 200.541 103.481 200.585 103.417C200.746 103.142 200.974 102.908 201.248 102.736C201.248 102.736 201.624 102.992 202 103.247Z" fill="#464646"/>
<path d="M84.9694 106.735C85.5648 106.253 86.2007 105.819 86.8706 105.438C87.2464 105.268 87.7548 105.438 88.5285 105.438C88.0643 106.395 87.7769 107.076 87.4232 107.714C87.0695 108.352 86.6495 109.011 86.2074 109.734C84.3725 109.139 84.881 107.884 84.9473 106.778L84.9694 106.735Z" fill="#464646"/>
<path d="M97.0835 137.852L102.477 130.918C103.676 132.769 104.073 134.999 103.583 137.129C102.19 136.618 102.522 134.831 101.151 134.278C100.933 135.293 100.537 136.264 99.9794 137.15C99.4268 137.767 98.2551 137.852 97.3488 138.171L97.0835 137.852Z" fill="#464646"/>
<path d="M79.5312 99.1416C79.2438 100.949 79.3323 102.715 77.6743 103.927C76.2374 101.8 76.6574 100.716 79.5312 99.1416Z" fill="#464646"/>
<path d="M108.38 129.897C108.601 132.024 107.341 133.301 106.899 134.853C106.899 135.002 106.302 135.108 105.993 135.066C105.886 135.012 105.796 134.933 105.73 134.836C105.664 134.739 105.625 134.628 105.617 134.513C105.984 132.723 106.955 131.101 108.38 129.897Z" fill="#464646"/>
<path d="M89.0809 111.18C87.3124 110.563 87.1134 110.223 87.8651 109.053C88.1358 108.526 88.4942 108.044 88.9262 107.628C89.3553 107.426 89.8203 107.303 90.2967 107.267C90.3942 107.701 90.3942 108.151 90.2967 108.585C89.943 109.5 89.4125 110.372 88.9704 111.244L89.0809 111.18Z" fill="#464646"/>
<path d="M74.358 95.377C75.2423 96.8871 73.9159 97.9931 74.0928 99.6308C73.3633 99.3968 72.8327 99.3755 72.5232 99.099C72.3834 98.9433 72.2828 98.7587 72.2291 98.5595C72.1755 98.3604 72.1702 98.152 72.2137 97.9505C72.3048 97.3781 72.5509 96.8389 72.9273 96.3872C73.3037 95.9354 73.7972 95.587 74.358 95.377Z" fill="#464646"/>
<path d="M133.714 94.9941L138.732 98.6737C138.091 99.7584 137.339 99.014 136.831 98.6737C135.571 97.6953 133.36 97.6953 133.714 94.9941Z" fill="#464646"/>
<path d="M79.8628 105.119C80.6365 103.609 80.3049 101.971 82.405 102.077C83.0019 103.183 82.2503 104.034 81.7639 104.842C81.6313 105.076 80.8797 104.991 79.8628 105.119Z" fill="#464646"/>
<path d="M110.635 130.791V134.3L108.557 133.492L109.994 130.663L110.635 130.791Z" fill="#464646"/>
<path d="M111.453 135.98C111.192 135.244 111.157 134.451 111.353 133.697C111.549 132.942 111.968 132.258 112.558 131.727C113.332 134.513 113.177 135.087 111.453 135.98Z" fill="#464646"/>
<path d="M77.055 97.6953C77.2294 98.1912 77.2491 98.7253 77.1116 99.2318C76.9741 99.7383 76.6854 100.195 76.2812 100.545C76.141 100.614 75.9856 100.65 75.8281 100.65C75.6705 100.65 75.5152 100.614 75.3749 100.545C75.1317 100.418 74.8001 100.014 74.8443 99.801C74.9505 99.2373 75.1928 98.7054 75.5517 98.2483C75.8833 98.1207 76.4581 98.0569 77.055 97.6953Z" fill="#464646"/>
<path d="M104.931 79.0215C105.174 80.7017 103.715 81.4462 102.72 82.5096C102.72 82.616 102.123 82.5096 101.571 82.3607C102.373 81.0131 103.513 79.8798 104.887 79.064L104.931 79.0215Z" fill="#464646"/>
<path d="M84.3943 146.614C85.0132 149.379 84.9911 149.443 83.4879 150.336C82.8026 149.06 83.311 148.039 84.3943 146.614Z" fill="#464646"/>
<path d="M123.479 142.765C123.479 144.317 123.257 145.359 121.843 145.849C121.268 144.083 121.268 144.083 123.479 142.765Z" fill="#464646"/>
<path d="M63.6146 91.9742C63.6146 92.9739 63.4156 93.6758 62.6198 93.697C62.2219 93.697 61.5808 93.0802 61.4924 92.6548C61.4543 92.4906 61.4565 92.3201 61.4987 92.1567C61.541 91.9934 61.6221 91.8418 61.7358 91.7139C61.8494 91.586 61.9925 91.4852 62.1536 91.4197C62.3147 91.3541 62.4894 91.3255 62.664 91.3362C63.0398 91.3149 63.3935 91.8041 63.6146 91.9742Z" fill="#464646"/>
<path d="M120.406 140.681C120.914 142.212 120.914 142.212 119.256 143.212C118.593 141.51 118.593 141.51 120.406 140.681Z" fill="#464646"/>
<path d="M115.277 133.534C115.675 134.98 115.852 136.023 114.371 136.767C114.17 136.509 114.033 136.21 113.969 135.893C113.906 135.576 113.919 135.25 114.006 134.938C114.093 134.627 114.253 134.339 114.473 134.095C114.694 133.852 114.968 133.66 115.277 133.534Z" fill="#464646"/>
<path d="M123.125 72.6615C123.57 72.4211 124.073 72.2949 124.584 72.2949C125.094 72.2949 125.597 72.4211 126.043 72.6615C126.153 73.6611 125.534 73.9163 124.782 73.9376C124.031 73.9589 123.235 73.7249 123.125 72.6615Z" fill="#464646"/>
<path d="M150.315 98.0576C150.805 98.0676 151.273 98.2549 151.625 98.5821C151.978 98.9094 152.189 99.3525 152.217 99.823C152.224 99.9397 152.2 100.056 152.146 100.161C152.091 100.266 152.009 100.355 151.907 100.418C151.602 100.536 151.262 100.536 150.956 100.418C150.006 99.823 150.006 99.036 150.315 98.0576Z" fill="#464646"/>
<path d="M104.997 79.0643C104.843 77.2565 106.523 76.4695 107.363 75.1934C107.369 75.9861 107.144 76.7647 106.714 77.4411C106.285 78.1176 105.667 78.6651 104.931 79.0218L104.997 79.0643Z" fill="#464646"/>
<path d="M88.7493 142.978C89.1395 143.236 89.4221 143.619 89.5475 144.059C89.6729 144.499 89.6329 144.967 89.4346 145.381C89.4346 145.615 88.7714 145.785 88.3956 145.828C88.2667 145.742 88.1612 145.628 88.088 145.494C88.0149 145.361 87.9763 145.213 87.9756 145.062C88.1884 144.352 88.4468 143.656 88.7493 142.978Z" fill="#464646"/>
<path d="M143.374 95.1436L144.236 98.2488C144.039 98.3024 143.832 98.3159 143.628 98.2884C143.425 98.2608 143.23 98.1929 143.055 98.0889C142.88 97.9849 142.73 97.8471 142.614 97.6842C142.498 97.5214 142.418 97.337 142.38 97.1429C142.269 96.6324 142.844 96.0581 143.374 95.1436Z" fill="#464646"/>
<path d="M140.788 146.614C139.351 146.082 139.461 144.764 138.997 143.615C140.942 144.87 140.942 144.87 140.788 146.614Z" fill="#464646"/>
<path d="M136.565 126.068C136.576 125.485 136.779 124.919 137.144 124.453C137.51 123.987 138.019 123.644 138.599 123.474C138.599 125.005 138.179 125.792 136.565 126.068Z" fill="#464646"/>
<path d="M85.7207 124.728C86.4502 123.558 87.0692 122.963 88.5061 123.452C87.8429 124.43 87.3787 125.345 85.7207 124.728Z" fill="#464646"/>
<path d="M92.375 141.68L93.3919 139.894C94.254 140.34 94.4751 140.829 93.9888 141.425C93.5024 142.02 93.2593 142.467 92.375 141.68Z" fill="#464646"/>
<path d="M140.92 156.42V158.547C139.262 157.824 139.262 157.824 140.92 156.42Z" fill="#464646"/>
<path d="M116.559 139.766C115.896 138.894 115.763 138.234 116.736 137.788C116.856 137.769 116.98 137.778 117.095 137.815C117.211 137.852 117.315 137.916 117.399 138C117.753 138.745 117.245 139.192 116.559 139.766Z" fill="#464646"/>
<path d="M99.4931 90.4854C100.355 91.1234 100.444 91.6764 99.7141 92.1869C99.5678 92.241 99.4095 92.2576 99.2545 92.2353C99.0995 92.2129 98.9532 92.1523 98.8299 92.0593C98.3656 91.3148 98.6972 90.8469 99.4931 90.4854Z" fill="#464646"/>
<path d="M90.0093 143.85L90.9156 141.914C91.203 142.084 91.5346 142.148 91.5788 142.297C91.822 143.169 91.4462 143.658 90.0093 143.85Z" fill="#464646"/>
<path d="M138.268 138.426L138.953 140.893C137.605 140.446 137.162 140 138.268 138.426Z" fill="#464646"/>
<path d="M140.655 149.592C141.473 150.421 141.539 151.102 140.655 151.846C139.837 151.208 139.815 150.528 140.655 149.592Z" fill="#464646"/>
<path d="M77.7847 152.676C78.0499 153.973 77.431 154.058 76.4141 154.016C76.4362 152.995 76.7678 152.676 77.7847 152.676Z" fill="#464646"/>
<path d="M140.146 163.247V161.333C140.5 161.333 140.743 161.333 140.788 161.461C141.163 162.141 141.384 162.779 140.146 163.247Z" fill="#464646"/>
<path d="M81.5867 151.23C81.233 151.528 81.0341 151.868 80.7688 151.932C80.4826 151.862 80.2365 151.686 80.0835 151.443C80.255 151.113 80.4705 150.805 80.7246 150.528L81.5867 151.23Z" fill="#464646"/>
<path d="M81.7639 140.234C81.1891 139.191 81.5207 138.83 82.2281 138.809C82.3608 138.809 82.5818 139.043 82.5818 139.064C82.3166 139.51 82.0292 139.893 81.7639 140.234Z" fill="#464646"/>
<path d="M137.494 127.706C138.599 128.408 138.533 128.918 137.361 129.45L137.494 127.706Z" fill="#464646"/>
<path d="M142.025 122.283C143.153 122.666 143.507 123.198 142.423 124.197L142.025 122.283Z" fill="#464646"/>
<path d="M125.114 148.507L125.578 147.571L126.131 147.869L125.689 148.741L125.114 148.507Z" fill="#464646"/>
<path d="M155.555 100.418L154.449 100.078C154.47 99.9397 154.507 99.8041 154.56 99.6738L155.687 99.9716L155.555 100.418Z" fill="#464646"/>
</svg>
