<svg width="196" height="54" viewBox="0 0 196 54" fill="none" xmlns="http://www.w3.org/2000/svg">
<path d="M33.3796 36.0038C33.3796 29.8151 29.7283 27.5253 27.9336 26.4113C29.2951 25.483 32.7608 22.6981 32.7608 17.6853C32.7608 10.0732 27.8717 4.9366 18.7125 4.9366H0.45585V49H19.6408C27.5004 49 33.3796 44.4204 33.3796 36.0038ZM22.5494 35.3849C22.5494 37.2415 21.5592 39.2838 18.5887 39.2838H11.286V31.5479H18.5887C21.5592 31.5479 22.5494 33.5283 22.5494 35.3849ZM21.9306 18.2423C21.9306 19.9751 21.0023 21.8317 18.0317 21.8317H11.286V14.6528H18.0317C21.0023 14.6528 21.9306 16.5094 21.9306 18.2423ZM123.3 49L107.767 22.76L122.805 4.9366H109.561L96.8126 20.5321V4.9366H86.1062V49H96.8126V35.1992L100.526 30.9291L110.675 49H123.3ZM147.86 49V4.9366H137.03V49H147.86ZM195.967 14.5909V4.9366H163.476V14.5909H174.306V49H185.137V14.5909H195.967Z" fill="#3D3E42"/>
<path d="M72.7594 0.356978H63.3527L45.7149 53.5796H55.1217L72.7594 0.356978Z" fill="#00ADEF"/>
</svg>
